<svg xmlns="http://www.w3.org/2000/svg" width="85.813" height="83.759" viewBox="0 0 85.813 83.759">
  <g id="Group_377" data-name="Group 377" transform="translate(-184.725 -471.945)">
    <path id="Path_146" data-name="Path 146" d="M269.53,513.89c.207,9.991-4.236,19.19-10.856,26.511-8.356,9.241-20.363,15.308-32.906,14.159-10.782-.211-20.944-5.377-28.277-13.18a32.132,32.132,0,0,1-11.116-31.264c1.892-21.7,23.574-39.639,45.288-36.845,19.609,2.254,37.09,21.5,37.866,40.619Z" fill="#fff" stroke="#000" stroke-linecap="round" stroke-linejoin="round" stroke-width="2"/>
    <path id="Path_147" data-name="Path 147" d="M201.81,499.13a2.839,2.839,0,1,1-2.839-2.839A2.839,2.839,0,0,1,201.81,499.13Z" transform="translate(20.792 4.262)" fill="#fff" stroke="#000" stroke-linecap="round" stroke-linejoin="round" stroke-width="2"/>
    <path id="Path_148" data-name="Path 148" d="M224.53,529.525a2.642,2.642,0,1,1-2.621-2.975A2.815,2.815,0,0,1,224.53,529.525Z" transform="translate(15.113 -25.773)" fill="#fff" stroke="#000" stroke-linecap="round" stroke-linejoin="round" stroke-width="2"/>
    <path id="Path_149" data-name="Path 149" d="M207.46,520.83c2.38,12.834,15.166,16.78,27.17,15.7,6.863-.619,15.6-5.832,16.691-14.461" fill="#fff" stroke="#000" stroke-linecap="round" stroke-linejoin="round" stroke-width="2"/>
    <path id="Path_150" data-name="Path 150" d="M201.81,499.13a2.839,2.839,0,1,1-2.839-2.839A2.839,2.839,0,0,1,201.81,499.13Z" transform="translate(20.792 4.262)" fill="#fff" stroke="#000" stroke-linecap="round" stroke-linejoin="round" stroke-width="2"/>
    <path id="Path_151" data-name="Path 151" d="M224.53,529.525a2.642,2.642,0,1,1-2.621-2.975A2.815,2.815,0,0,1,224.53,529.525Z" transform="translate(15.113 -25.773)" fill="#fff" stroke="#000" stroke-linecap="round" stroke-linejoin="round" stroke-width="2"/>
  </g>
</svg>
