<svg xmlns="http://www.w3.org/2000/svg" width="87.235" height="85.397" viewBox="0 0 87.235 85.397">
  <g id="Group_376" data-name="Group 376" transform="translate(-291.369 -470.673)">
    <path id="Path_142" data-name="Path 142" d="M377.57,513.53c.366,11.26-3.765,21.417-13.3,28.864-8.194,6.4-20.472,12.534-31.394,12.676-22.792-.447-42.873-22.57-40.235-45.4.839-9.619,6.632-18.792,12.292-26.534,8.331-9.3,21.528-12.622,33.965-11.1,20.613,1.7,39.56,20.243,38.676,41.489Z" fill="#fff" stroke="#000" stroke-linecap="round" stroke-linejoin="round" stroke-width="2"/>
    <path id="Path_143" data-name="Path 143" d="M313.77,527.32c8.455.58,38.373-.024,42.551.693" fill="#fff" stroke="#000" stroke-linecap="round" stroke-linejoin="round" stroke-width="2"/>
    <path id="Path_144" data-name="Path 144" d="M201.81,499.13a2.839,2.839,0,1,1-2.839-2.839A2.839,2.839,0,0,1,201.81,499.13Z" transform="translate(127.12 3.468)" fill="#fff" stroke="#000" stroke-linecap="round" stroke-linejoin="round" stroke-width="2"/>
    <path id="Path_145" data-name="Path 145" d="M224.53,529.525a2.642,2.642,0,1,1-2.621-2.975A2.815,2.815,0,0,1,224.53,529.525Z" transform="translate(121.44 -26.568)" fill="#fff" stroke="#000" stroke-linecap="round" stroke-linejoin="round" stroke-width="2"/>
  </g>
</svg>
