<svg xmlns="http://www.w3.org/2000/svg" width="87.235" height="85.397" viewBox="0 0 87.235 85.397">
  <g id="Group_378" data-name="Group 378" transform="translate(-402.799 -472.363)">
    <path id="Path_152" data-name="Path 152" d="M489,515.22c.366,11.26-3.765,21.417-13.3,28.864-8.194,6.4-20.472,12.534-31.394,12.676-22.792-.447-42.873-22.57-40.235-45.4.839-9.619,6.632-18.792,12.292-26.534,8.331-9.3,21.528-12.622,33.965-11.1,20.613,1.7,39.56,20.243,38.676,41.489Z" fill="#fff" stroke="#000" stroke-linecap="round" stroke-linejoin="round" stroke-width="2"/>
    <path id="Path_153" data-name="Path 153" d="M201.81,499.13a2.839,2.839,0,1,1-2.839-2.839A2.839,2.839,0,0,1,201.81,499.13Z" transform="translate(239.2 6.01)" fill="#fff" stroke="#000" stroke-linecap="round" stroke-linejoin="round" stroke-width="2"/>
    <path id="Path_154" data-name="Path 154" d="M224.53,529.525a2.642,2.642,0,1,1-2.621-2.975A2.815,2.815,0,0,1,224.53,529.525Z" transform="translate(233.52 -24.026)" fill="#fff" stroke="#000" stroke-linecap="round" stroke-linejoin="round" stroke-width="2"/>
    <path id="Path_155" data-name="Path 155" d="M201.81,499.13a2.839,2.839,0,1,1-2.839-2.839A2.839,2.839,0,0,1,201.81,499.13Z" transform="translate(239.2 6.01)" fill="#fff" stroke="#000" stroke-linecap="round" stroke-linejoin="round" stroke-width="2"/>
    <path id="Path_156" data-name="Path 156" d="M224.53,529.525a2.642,2.642,0,1,1-2.621-2.975A2.815,2.815,0,0,1,224.53,529.525Z" transform="translate(233.52 -24.026)" fill="#fff" stroke="#000" stroke-linecap="round" stroke-linejoin="round" stroke-width="2"/>
    <path id="Path_157" data-name="Path 157" d="M425.47,533.42c13.687-14.432,35.237-14.474,42.809,0" fill="none" stroke="#000" stroke-linecap="round" stroke-linejoin="round" stroke-width="2"/>
  </g>
</svg>
