<svg xmlns="http://www.w3.org/2000/svg" width="85.411" height="83.681" viewBox="0 0 85.411 83.681">
  <g id="Group_389" data-name="Group 389" transform="translate(-74.892 -471.682)">
    <path id="Path_138" data-name="Path 138" d="M159.27,513.63c-.048,21-21.555,41.915-43.762,40.671-21.748-.524-41.19-21.03-39.5-42.928.012-10.524,1.815-21.834,13.924-30.851,9.031-7.194,18.621-8.539,29.588-7.626,20.9.673,40.632,19.282,39.747,40.734Z" fill="#fff" stroke="#000" stroke-linecap="round" stroke-linejoin="round" stroke-width="2"/>
    <path id="Path_139" data-name="Path 139" d="M95.5,519.94c3.41,26.009,23.557,30.415,35.389,19.062,4.324-3.591,7.795-11.709,8.527-21.674-14.639,7.079-29.277,7.05-43.916,2.612Z" fill="#fff" stroke="#000" stroke-linecap="round" stroke-linejoin="round" stroke-width="2"/>
    <path id="Path_140" data-name="Path 140" d="M201.81,499.13a2.839,2.839,0,1,1-2.839-2.839A2.839,2.839,0,0,1,201.81,499.13Z" transform="translate(-89.477 5.092)" fill="#fff" stroke="#000" stroke-linecap="round" stroke-linejoin="round" stroke-width="2"/>
    <path id="Path_141" data-name="Path 141" d="M224.53,529.525a2.642,2.642,0,1,1-2.621-2.975A2.815,2.815,0,0,1,224.53,529.525Z" transform="translate(-96.029 -24.943)" fill="#fff" stroke="#000" stroke-linecap="round" stroke-linejoin="round" stroke-width="2"/>
  </g>
</svg>
