<svg xmlns="http://www.w3.org/2000/svg" width="87.235" height="85.319" viewBox="0 0 87.235 85.319">
  <g id="Group_379" data-name="Group 379" transform="translate(-513.749 -471.589)">
    <path id="Path_158" data-name="Path 158" d="M599.95,514.35c.366,11.26-3.765,21.417-13.3,28.864-9.05,8.109-20.7,12.994-31.394,12.676-22.792-.447-42.873-22.57-40.235-45.4.839-9.619,5.759-20.54,12.292-26.534a43.777,43.777,0,0,1,33.965-11.1c20.613,1.7,39.56,20.243,38.676,41.489Z" fill="#fff" stroke="#000" stroke-linecap="round" stroke-linejoin="round" stroke-width="2"/>
    <path id="Path_159" data-name="Path 159" d="M201.81,499.13a2.839,2.839,0,1,1-2.839-2.839A2.839,2.839,0,0,1,201.81,499.13Z" transform="translate(349.28 2.078)" fill="#fff" stroke="#000" stroke-linecap="round" stroke-linejoin="round" stroke-width="2"/>
    <path id="Path_160" data-name="Path 160" d="M224.53,529.525a2.642,2.642,0,1,1-2.621-2.975A2.815,2.815,0,0,1,224.53,529.525Z" transform="translate(343.6 -27.957)" fill="#fff" stroke="#000" stroke-linecap="round" stroke-linejoin="round" stroke-width="2"/>
    <path id="Path_161" data-name="Path 161" d="M201.81,499.13a2.839,2.839,0,1,1-2.839-2.839A2.839,2.839,0,0,1,201.81,499.13Z" transform="translate(349.28 2.078)" fill="#fff" stroke="#000" stroke-linecap="round" stroke-linejoin="round" stroke-width="2"/>
    <path id="Path_162" data-name="Path 162" d="M224.53,529.525a2.642,2.642,0,1,1-2.621-2.975A2.815,2.815,0,0,1,224.53,529.525Z" transform="translate(343.6 -27.957)" fill="#fff" stroke="#000" stroke-linecap="round" stroke-linejoin="round" stroke-width="2"/>
    <path id="Path_163" data-name="Path 163" d="M534.67,537.79c13.68-3.239,27.7-4.777,43.682,3.495C571.445,506.837,541.024,509.04,534.67,537.79Z" fill="none" stroke="#000" stroke-linecap="round" stroke-linejoin="round" stroke-width="2"/>
  </g>
</svg>
